<?xml version="1.0" standalone="no"?>
<!DOCTYPE svg PUBLIC "-//W3C//DTD SVG 20010904//EN"
 "http://www.w3.org/TR/2001/REC-SVG-20010904/DTD/svg10.dtd">
<svg version="1.0" xmlns="http://www.w3.org/2000/svg"
 width="96.000000pt" height="96.000000pt" viewBox="0 0 96.000000 96.000000"
 preserveAspectRatio="xMidYMid meet">
<metadata>
Created by potrace 1.11, written by Peter Selinger 2001-2013
</metadata>
<g transform="translate(0.000000,96.000000) scale(0.100000,-0.100000)"
fill="#000000" stroke="none">
<path d="M504 944 c18 -18 21 -44 5 -44 -5 0 -8 -4 -5 -8 7 -12 -95 -2 -110 9
-8 6 -13 3 -16 -8 -8 -26 -96 -69 -116 -57 -32 21 -38 43 -20 74 17 29 17 30
-4 30 -23 0 -85 -61 -99 -97 -18 -49 -17 -72 5 -105 40 -59 40 -58 -6 -42 -42
15 -60 20 -107 31 l-24 6 27 -44 c15 -24 35 -60 44 -79 23 -48 22 -48 42 -22
10 12 20 22 23 22 15 0 69 -60 80 -90 24 -61 11 -86 -87 -169 -117 -101 -132
-138 -80 -207 25 -34 78 -53 169 -60 28 -3 64 -11 80 -19 147 -68 136 -65 253
-65 110 0 112 0 112 23 0 13 -5 28 -11 34 -18 18 6 24 52 14 23 -5 86 -9 138
-7 114 2 115 3 78 111 -18 53 -25 94 -26 165 -1 95 -16 211 -31 240 -9 18 -35
24 -58 14 -9 -4 -28 -8 -41 -9 -25 -2 -54 -32 -45 -46 3 -5 -2 -9 -10 -9 -23
0 -39 -38 -31 -76 6 -34 6 -34 -27 -28 -48 9 -53 18 -37 61 11 29 25 43 58 59
70 34 81 76 31 126 -50 49 -74 105 -75 175 -2 84 -27 113 -97 113 -45 0 -48
-1 -34 -16z m-280 -282 c3 -5 7 -20 10 -34 8 -44 26 -71 79 -120 44 -40 50
-49 41 -65 -7 -10 -23 -18 -40 -19 -39 0 -54 -11 -54 -36 0 -11 -8 -22 -18
-25 -11 -2 -31 -27 -46 -54 -21 -39 -24 -54 -16 -69 6 -11 14 -20 19 -20 4 0
19 -18 33 -40 l26 -39 -21 -7 c-12 -4 -42 -7 -66 -6 -59 0 -95 28 -99 74 -3
32 2 40 54 84 130 112 144 130 144 184 0 47 -24 93 -70 136 -38 35 -40 39 -24
51 20 15 40 17 48 5z m459 -317 c33 -6 35 -10 42 -53 3 -26 8 -55 11 -64 4
-12 0 -18 -11 -18 -8 0 -19 8 -22 18 -4 9 -21 35 -38 57 -38 48 -52 80 -31 72
8 -3 30 -9 49 -12z"/>
</g>
</svg>
